# ProBuilder 5.0.7
# https://unity3d.com/unity/features/worldbuilding/probuilder
# 5/4/2023 2:24:15 PM

mtllib ./Level.mtl
o Level

g Level
v 13.37464 -0.5212417 14.137
v 7.374637 -0.5212417 14.137
v 13.37464 1.478758 14.137
v 7.374637 1.478758 14.137
v 7.374637 -0.5212417 10.137
v 7.374637 1.478758 10.137
v 13.37464 -0.5212417 10.137
v 13.37464 1.478758 10.137
v 25 -1.5 -24.5
v -25 -1.5 -24.5
v 25 1.5 -24.5
v -25 1.5 -24.5
v -25 -1.5 -25.5
v -25 1.5 -25.5
v 25 -1.5 -25.5
v 25 1.5 -25.5
v -25.5 -1.5 25
v -25.5 -1.5 -25
v -25.5 1.5 25
v -25.5 1.5 -25
v -24.5 -1.5 -25
v -24.5 1.5 -25
v -24.5 -1.5 25
v -24.5 1.5 25
v 24.5 -1.5 25
v 24.5 -1.5 -25
v 24.5 1.5 25
v 24.5 1.5 -25
v 25.5 -1.5 -25
v 25.5 1.5 -25
v 25.5 -1.5 25
v 25.5 1.5 25
v 25 -1.5 25.5
v -25 -1.5 25.5
v 25 1.5 25.5
v -25 1.5 25.5
v -25 -1.5 24.5
v -25 1.5 24.5
v 25 -1.5 24.5
v 25 1.5 24.5
v -3.401039 -0.5212417 5.28432
v -9.401039 -0.5212417 5.28432
v -3.401039 1.478758 5.28432
v -9.401039 1.478758 5.28432
v -9.401039 -0.5212417 1.284321
v -9.401039 1.478758 1.284321
v -3.401039 -0.5212417 1.284321
v -3.401039 1.478758 1.284321
v 13.88464 -0.5212417 -4.022997
v 7.884637 -0.5212417 -4.022997
v 13.88464 1.478758 -4.022997
v 7.884637 1.478758 -4.022997
v 7.884637 -0.5212417 -8.022997
v 7.884637 1.478758 -8.022997
v 13.88464 -0.5212417 -8.022997
v 13.88464 1.478758 -8.022997
v 25 -0.51 -25
v 25 -0.51 9.536743E-07
v 9.536743E-07 -0.51 -25
v 9.536743E-07 -0.51 9.536743E-07
v 25 -0.51 25
v 9.536743E-07 -0.51 25
v -25 -0.51 -25
v -25 -0.51 9.536743E-07
v -25 -0.51 25

vt 13.37464 -0.5212417
vt 7.374637 -0.5212417
vt 13.37464 1.478758
vt 7.374637 1.478758
vt 14.137 -0.5212417
vt 10.137 -0.5212417
vt 14.137 1.478758
vt 10.137 1.478758
vt -7.374637 -0.5212417
vt -13.37464 -0.5212417
vt -7.374637 1.478758
vt -13.37464 1.478758
vt -10.137 -0.5212417
vt -14.137 -0.5212417
vt -10.137 1.478758
vt -14.137 1.478758
vt -13.37464 14.137
vt -7.374637 14.137
vt -13.37464 10.137
vt -7.374637 10.137
vt 13.37464 10.137
vt 7.374637 10.137
vt 13.37464 14.137
vt 7.374637 14.137
vt 32.2 -0.67
vt -17.8 -0.67
vt 32.2 0.33
vt -17.8 0.33
vt 10.72 -0.67
vt 9.720001 -0.67
vt 10.72 0.33
vt 9.720001 0.33
vt 17.8 -0.67
vt -32.2 -0.67
vt 17.8 0.33
vt -32.2 0.33
vt -9.720001 -0.67
vt -10.72 -0.67
vt -9.720001 0.33
vt -10.72 0.33
vt -32.2 10.72
vt 17.8 10.72
vt -32.2 9.720001
vt 17.8 9.720001
vt 32.2 9.720001
vt -17.8 9.720001
vt 32.2 10.72
vt -17.8 10.72
vt 35.22 -0.67
vt -14.78 -0.67
vt 35.22 0.33
vt -14.78 0.33
vt -6.700001 -0.67
vt -7.700001 -0.67
vt -6.700001 0.33
vt -7.700001 0.33
vt 14.78 -0.67
vt -35.22 -0.67
vt 14.78 0.33
vt -35.22 0.33
vt 7.700001 -0.67
vt 6.700001 -0.67
vt 7.700001 0.33
vt 6.700001 0.33
vt -32.19995 10.72
vt 17.80005 10.71999
vt -32.19995 9.720007
vt 17.80005 9.719999
vt 32.2 9.719999
vt -17.8 9.719999
vt 32.2 10.72
vt -17.8 10.72
vt -32.2 -14.78
vt -32.2 10.22
vt -7.200001 -14.78
vt -7.200001 10.22
vt -32.2 35.22
vt -7.200001 35.22
vt 17.8 -14.78
vt 17.8 10.22
vt 17.8 35.22

vn 0 0 1
vn -1 0 0
vn 0 0 -1
vn 1 0 0
vn 0 1 0
vn 0 -1 0

usemtl Prototype_512x512_Grey3
f 3/3/1 4/4/1 2/2/1 1/1/1
f 4/7/2 6/8/2 5/6/2 2/5/2
f 6/11/3 8/12/3 7/10/3 5/9/3
f 8/15/4 3/16/4 1/14/4 7/13/4
f 8/19/5 6/20/5 4/18/5 3/17/5
f 1/23/6 2/24/6 5/22/6 7/21/6
f 11/27/1 12/28/1 10/26/1 9/25/1
f 12/31/2 14/32/2 13/30/2 10/29/2
f 14/35/3 16/36/3 15/34/3 13/33/3
f 16/39/4 11/40/4 9/38/4 15/37/4
f 16/43/5 14/44/5 12/42/5 11/41/5
f 9/47/6 10/48/6 13/46/6 15/45/6
f 19/51/2 20/52/2 18/50/2 17/49/2
f 20/55/3 22/56/3 21/54/3 18/53/3
f 22/59/4 24/60/4 23/58/4 21/57/4
f 24/63/1 19/64/1 17/62/1 23/61/1
f 24/67/5 22/68/5 20/66/5 19/65/5
f 17/71/6 18/72/6 21/70/6 23/69/6
f 27/51/2 28/52/2 26/50/2 25/49/2
f 28/55/3 30/56/3 29/54/3 26/53/3
f 30/59/4 32/60/4 31/58/4 29/57/4
f 32/63/1 27/64/1 25/62/1 31/61/1
f 32/67/5 30/68/5 28/66/5 27/65/5
f 25/71/6 26/72/6 29/70/6 31/69/6
f 35/27/1 36/28/1 34/26/1 33/25/1
f 36/31/2 38/32/2 37/30/2 34/29/2
f 38/35/3 40/36/3 39/34/3 37/33/3
f 40/39/4 35/40/4 33/38/4 39/37/4
f 40/43/5 38/44/5 36/42/5 35/41/5
f 33/47/6 34/48/6 37/46/6 39/45/6
f 43/3/1 44/4/1 42/2/1 41/1/1
f 44/7/2 46/8/2 45/6/2 42/5/2
f 46/11/3 48/12/3 47/10/3 45/9/3
f 48/15/4 43/16/4 41/14/4 47/13/4
f 48/19/5 46/20/5 44/18/5 43/17/5
f 41/23/6 42/24/6 45/22/6 47/21/6
f 51/3/1 52/4/1 50/2/1 49/1/1
f 52/7/2 54/8/2 53/6/2 50/5/2
f 54/11/3 56/12/3 55/10/3 53/9/3
f 56/15/4 51/16/4 49/14/4 55/13/4
f 56/19/5 54/20/5 52/18/5 51/17/5
f 49/23/6 50/24/6 53/22/6 55/21/6

usemtl Prototype_512x512_Grey2
f 59/75/5 60/76/5 58/74/5 57/73/5
f 60/76/5 62/78/5 61/77/5 58/74/5
f 63/79/5 64/80/5 60/76/5 59/75/5
f 64/80/5 65/81/5 62/78/5 60/76/5

